<svg width="36" height="36" viewBox="0 0 36 36" fill="none" xmlns="http://www.w3.org/2000/svg">
<path fill-rule="evenodd" clip-rule="evenodd" d="M8.31991 29.7017L0 21.2174L2.34783 18.8696L8.6087 22.7826L26.6087 4L28.9565 5.56522L10.6826 29.5545C10.4072 29.9159 9.98839 30.1399 9.53489 30.1681C9.08139 30.1963 8.638 30.0261 8.31991 29.7017Z" fill="white"/>
<path opacity="0.497489" fill-rule="evenodd" clip-rule="evenodd" d="M35.2176 11.0435H31.3046C30.8724 11.0435 30.522 10.6931 30.522 10.2609C30.522 9.82866 30.8724 9.47827 31.3046 9.47827H35.2176C35.6498 9.47827 36.0002 9.82866 36.0002 10.2609C36.0002 10.6931 35.6498 11.0435 35.2176 11.0435Z" fill="white"/>
<path opacity="0.497489" fill-rule="evenodd" clip-rule="evenodd" d="M35.2174 18.0869H25.8261C25.3938 18.0869 25.0435 17.7366 25.0435 17.3043C25.0435 16.8721 25.3938 16.5217 25.8261 16.5217H35.2174C35.6496 16.5217 36 16.8721 36 17.3043C36 17.7366 35.6496 18.0869 35.2174 18.0869Z" fill="white"/>
<path opacity="0.497489" fill-rule="evenodd" clip-rule="evenodd" d="M35.2176 25.1304H20.348C19.9158 25.1304 19.5654 24.78 19.5654 24.3478C19.5654 23.9156 19.9158 23.5652 20.348 23.5652H35.2176C35.6498 23.5652 36.0002 23.9156 36.0002 24.3478C36.0002 24.78 35.6498 25.1304 35.2176 25.1304Z" fill="white"/>
<path opacity="0.497489" fill-rule="evenodd" clip-rule="evenodd" d="M35.2173 32.1739H14.8695C14.4373 32.1739 14.0869 31.8235 14.0869 31.3913C14.0869 30.959 14.4373 30.6086 14.8695 30.6086H35.2173C35.6496 30.6086 36 30.959 36 31.3913C36 31.8235 35.6496 32.1739 35.2173 32.1739Z" fill="white"/>
</svg>
