<svg width="36" height="36" viewBox="0 0 36 36" fill="none" xmlns="http://www.w3.org/2000/svg">
<path fill-rule="evenodd" clip-rule="evenodd" d="M10 9C9.44772 9 9 8.70152 9 8.33333V3.66667C9 3.29848 9.44772 3 10 3C10.5523 3 11 3.29848 11 3.66667V8.33333C11 8.70152 10.5523 9 10 9Z" fill="white"/>
<path fill-rule="evenodd" clip-rule="evenodd" d="M26 9C25.4477 9 25 8.70152 25 8.33333V3.66667C25 3.29848 25.4477 3 26 3C26.5523 3 27 3.29848 27 3.66667V8.33333C27 8.70152 26.5523 9 26 9Z" fill="white"/>
<path opacity="0.5" fill-rule="evenodd" clip-rule="evenodd" d="M20.4909 30.6316H4.18182C3.78016 30.6316 3.45455 30.3252 3.45455 29.9474V14.2105C3.45455 13.8326 3.78016 13.5263 4.18182 13.5263H31.8182C32.2198 13.5263 32.5455 13.8326 32.5455 14.2105V22.2753C33.0768 22.6029 33.5651 22.9885 34 23.4241V7.36842C34 6.61266 33.3488 6 32.5455 6H28.1818V8.73684C28.1818 9.87048 27.205 10.7895 26 10.7895C24.795 10.7895 23.8182 9.87048 23.8182 8.73684V6H12.1818V8.73684C12.1818 9.87048 11.205 10.7895 10 10.7895C8.79502 10.7895 7.81818 9.87048 7.81818 8.73684V6H3.45455C2.65122 6 2 6.61266 2 7.36842V30.6316C2 31.3873 2.65122 32 3.45455 32H21.0618C20.824 31.5627 20.6328 31.1043 20.4909 30.6316Z" fill="white"/>
<path fill-rule="evenodd" clip-rule="evenodd" d="M28.5 35C24.9101 35 22 32.0899 22 28.5C22.004 24.9118 24.9118 22.004 28.5 22C32.0899 22 35 24.9101 35 28.5C35 32.0899 32.0899 35 28.5 35ZM32.6217 26.8439C32.9037 26.5619 32.9037 26.1048 32.6217 25.8227C32.3397 25.5408 31.8825 25.5408 31.6005 25.8227L27.0556 30.3677L25.3995 28.7116C25.1161 28.4379 24.6657 28.4418 24.3871 28.7204C24.1085 28.999 24.1046 29.4494 24.3783 29.7328L26.5449 31.8995C26.827 32.1814 27.2841 32.1814 27.5662 31.8995L32.6217 26.8439Z" fill="white"/>
</svg>
