<svg width="122" height="36" viewBox="0 0 122 36" fill="none" xmlns="http://www.w3.org/2000/svg">
<path fill-rule="evenodd" clip-rule="evenodd" d="M1.69043 17.7412V0H15.489V4.13951H7.50529V7.3677H13.8625V11.5072H7.50529V17.7412H1.69043V17.7412ZM24.1149 17.7412L23.8685 16.3612C22.4148 17.7165 20.9363 18.1109 19.0146 18.1109C16.5752 18.1109 14.407 16.9036 14.407 14.2171C14.407 8.35267 23.598 11.0137 23.598 8.59909C23.598 7.66229 22.4651 7.53909 21.9227 7.53909C21.2075 7.53909 20.2466 7.68707 20.1234 8.79594H15.1951C15.1951 6.06059 17.1417 4.45889 22.2421 4.45889C28.3529 4.45889 28.7225 6.7255 28.7225 9.80638V15.8429C28.7225 16.5821 28.7473 16.9518 29.4122 17.4935V17.7399H24.1149V17.7412V17.7412Z" fill="#1D293F"/>
<path fill-rule="evenodd" clip-rule="evenodd" d="M23.5977 12.0239C21.9223 12.8375 19.7046 12.4431 19.7046 14.1185C19.7046 14.7593 20.3213 15.2026 21.3311 15.2026C23.1296 15.2026 23.7216 13.7984 23.5977 12.0239V12.0239Z" fill="white"/>
<path fill-rule="evenodd" clip-rule="evenodd" d="M30.8313 4.8295H35.4884V7.44095H35.5372C36.2524 5.42007 37.5086 4.45918 39.5047 4.45918C39.7263 4.45918 39.9479 4.50806 40.1696 4.53283V9.65801C39.8247 9.60845 39.4544 9.5107 39.1103 9.5107C37.0157 9.5107 35.9557 10.4964 35.9557 13.2806V17.7409H30.8306V4.8295H30.8313V4.8295ZM41.4319 4.8295H46.1138V6.85038C47.2723 5.29824 48.5284 4.45987 50.475 4.45987C53.8753 4.45987 55.477 6.45529 55.477 10.0042V17.7415H50.3518V10.9156C50.3518 9.6346 50.0069 8.50095 48.5532 8.50095C46.9763 8.50095 46.5578 9.51139 46.5578 11.162V17.7409H41.4319V4.8295ZM66.4555 17.7409L66.2098 16.3608C64.7568 17.7161 63.2776 18.1105 61.3551 18.1105C58.9165 18.1105 56.7483 16.9032 56.7483 14.2167C56.7483 8.35228 65.94 11.0133 65.94 8.59869C65.94 7.6619 64.8057 7.53869 64.2633 7.53869C63.5495 7.53869 62.5879 7.68668 62.4647 8.79555H57.5371C57.5371 6.0602 59.4836 4.4585 64.5833 4.4585C70.6949 4.4585 71.0645 6.72511 71.0645 9.80599V15.8425C71.0645 16.5817 71.0886 16.9514 71.7542 17.4931V17.7395H66.4555V17.7409V17.7409Z" fill="#1D293F"/>
<path fill-rule="evenodd" clip-rule="evenodd" d="M65.94 12.0239C64.2632 12.8375 62.0469 12.4431 62.0469 14.1185C62.0469 14.7593 62.6629 15.2026 63.672 15.2026C65.4705 15.2026 66.0625 13.7984 65.94 12.0239V12.0239Z" fill="white"/>
<path fill-rule="evenodd" clip-rule="evenodd" d="M72.8767 4.82934H77.5834V6.75111C78.2235 5.76545 79.8246 4.45972 81.6727 4.45972C83.9888 4.45972 85.2705 5.44538 85.8858 6.82544C86.9947 5.2733 88.4484 4.45972 90.3461 4.45972C94.116 4.45972 95.2985 6.57903 95.2985 10.1025V17.7414H90.174V11.1625C90.174 9.26482 89.8044 8.50149 88.4477 8.50149C86.9445 8.50149 86.6492 9.80722 86.6492 11.3594V17.7414H81.5247V11.1625C81.5247 9.26482 81.1551 8.50149 79.7998 8.50149C78.2965 8.50149 78.0012 9.80722 78.0012 11.3594V17.7414H72.8767V4.82934ZM5.64861 27.5278C5.59011 26.2358 4.51978 25.8284 3.57679 25.8284C2.86714 25.8284 1.6681 26.0259 1.6681 27.2952C1.6681 28.0048 2.16851 28.2375 2.65721 28.3531L5.0429 28.9003C6.12492 29.157 6.93989 29.8089 6.93989 31.1346C6.93989 33.1135 5.1014 33.6607 3.66972 33.6607C2.1217 33.6607 1.51668 33.1954 1.1443 32.8581C0.434649 32.2166 0.294922 31.5193 0.294922 30.7395H1.35423C1.35423 32.2517 2.58769 32.6943 3.6587 32.6943C4.47366 32.6943 5.84685 32.4857 5.84685 31.2867C5.84685 30.4139 5.43937 30.1345 4.06618 29.8096L2.35573 29.4131C1.80921 29.2851 0.575065 28.901 0.575065 27.4466C0.575065 26.1436 1.42444 24.8627 3.44946 24.8627C6.37065 24.8627 6.66181 26.6089 6.70792 27.5285H5.64861V27.5278V27.5278ZM13.0487 31.531C13.0136 31.8215 12.7341 32.6833 11.9666 33.1954C11.6872 33.3812 11.2921 33.6132 10.314 33.6132C8.60354 33.6132 7.59103 32.3212 7.59103 30.564C7.59103 28.6794 8.49891 27.1775 10.5122 27.1775C12.2695 27.1775 13.1306 28.574 13.1306 30.7264H8.68545C8.68545 31.9956 9.27877 32.728 10.4544 32.728C11.4201 32.728 11.99 31.9833 12.0251 31.5303H13.0487V31.531V31.531Z" fill="#1D293F"/>
<path fill-rule="evenodd" clip-rule="evenodd" d="M12.0708 29.9135C12.0123 28.9712 11.6165 28.0984 10.3713 28.0984C9.42835 28.0984 8.68359 28.9712 8.68359 29.9135H12.0708Z" fill="white"/>
<path fill-rule="evenodd" clip-rule="evenodd" d="M13.9549 29.2028C14.0017 27.7484 14.9674 27.1785 16.4686 27.1785C16.9573 27.1785 18.7263 27.3182 18.7263 28.8779V32.3814C18.7263 32.6368 18.8543 32.7414 19.0636 32.7414C19.1565 32.7414 19.2845 32.7187 19.4008 32.6946V33.4394C19.2267 33.4862 19.0746 33.5564 18.8419 33.5564C17.934 33.5564 17.795 33.0911 17.7599 32.6244C17.3641 33.056 16.7474 33.6142 15.5601 33.6142C14.4429 33.6142 13.6514 32.9045 13.6514 31.8569C13.6514 31.3448 13.8028 30.1575 15.5015 29.9482L17.1893 29.7397C17.4336 29.7156 17.7248 29.6227 17.7248 29.0176C17.7248 28.3775 17.2588 28.0278 16.2931 28.0278C15.1292 28.0278 14.966 28.7375 14.8965 29.2028H13.9549V29.2028Z" fill="#1D293F"/>
<path fill-rule="evenodd" clip-rule="evenodd" d="M17.7007 30.3323C17.5382 30.4603 17.2822 30.5539 16.0136 30.717C15.5132 30.7872 14.71 30.9373 14.71 31.7068C14.71 32.3697 15.0472 32.7648 15.8154 32.7648C16.7694 32.7648 17.7 32.148 17.7 31.3331V30.3323H17.7007V30.3323Z" fill="white"/>
<path fill-rule="evenodd" clip-rule="evenodd" d="M21.1441 33.4394H20.1206V25.084H21.1441V33.4394ZM23.366 33.4394H22.3418V27.3534H23.366V33.4394ZM22.3418 26.2479V25.084H23.366V26.2479H22.3418ZM29.4982 33.4394H28.474V29.6929C28.474 28.6336 28.1718 28.0988 27.1703 28.0988C26.5887 28.0988 25.5645 28.4712 25.5645 30.1231V33.4394H24.5403V27.3534H25.506V28.2151H25.5294C25.751 27.8882 26.3209 27.1785 27.3678 27.1785C28.3108 27.1785 29.4975 27.5633 29.4975 29.2971V33.4394H29.4982ZM35.6985 32.939C35.6985 33.8118 35.6868 35.9999 32.8709 35.9999C32.1495 35.9999 30.7413 35.8024 30.543 34.1835H31.5672C31.7538 35.1499 32.6961 35.1499 32.9404 35.1499C34.7094 35.1499 34.675 33.7306 34.675 33.0085V32.7532H34.6516V32.7986C34.3838 33.2302 33.8483 33.6135 33.034 33.6135C30.9622 33.6135 30.3572 31.6711 30.3572 30.2147C30.3572 28.5049 31.2768 27.1778 32.8943 27.1778C33.9997 27.1778 34.465 27.8648 34.7094 28.2144H34.7328V27.3527H35.6985V32.939Z" fill="#1D293F"/>
<path fill-rule="evenodd" clip-rule="evenodd" d="M33.056 32.7293C33.7078 32.7293 34.7203 32.2991 34.7203 30.6816C34.7203 29.6918 34.5572 28.0977 33.0794 28.0977C31.4963 28.0977 31.415 29.5996 31.415 30.3787C31.415 31.7175 31.9388 32.7293 33.056 32.7293Z" fill="white"/>
<path fill-rule="evenodd" clip-rule="evenodd" d="M44.7951 27.5284C44.7366 26.2365 43.6656 25.829 42.7233 25.829C42.0136 25.829 40.8146 26.0265 40.8146 27.2958C40.8146 28.0054 41.315 28.2381 41.8037 28.3537L44.1894 28.9009C45.2721 29.1577 46.0864 29.8095 46.0864 31.1352C46.0864 33.1141 44.2479 33.6613 42.8162 33.6613C41.2682 33.6613 40.6638 33.196 40.2908 32.8587C39.5811 32.2172 39.4414 31.52 39.4414 30.7401H40.5007C40.5007 32.2523 41.7342 32.6949 42.8045 32.6949C43.6195 32.6949 44.9926 32.4863 44.9926 31.2873C44.9926 30.4145 44.5859 30.1351 43.212 29.8102L41.5015 29.4137C40.955 29.2857 39.7209 28.9016 39.7209 27.4472C39.7209 26.1442 40.5702 24.8633 42.5953 24.8633C45.5164 24.8633 45.8076 26.6095 45.8537 27.5291H44.7951V27.5284V27.5284ZM50.8337 27.3536H51.9625C51.2528 29.3435 50.5542 31.3327 49.7743 33.324C48.8086 35.7909 48.704 35.9307 47.3887 35.9307C47.2372 35.9307 47.1209 35.8838 46.9578 35.8377V34.9058C47.1556 34.9766 47.3644 35.012 47.5745 35.0104C48.1093 35.0104 48.1678 34.8596 48.6565 33.6028L46.3989 27.3529H47.5628L49.1803 32.3108H49.2037L50.8337 27.3536ZM55.9416 29.0875C55.9299 28.7027 55.7902 28.0632 54.4982 28.0632C54.1837 28.0632 53.2875 28.1679 53.2875 28.925C53.2875 29.4254 53.6021 29.5411 54.3929 29.74L55.4171 29.9953C56.6857 30.3099 57.1276 30.7752 57.1276 31.6019C57.1276 32.8587 56.0917 33.6145 54.7185 33.6145C52.3094 33.6145 52.1353 32.2179 52.1002 31.4848H53.0893C53.1244 31.9618 53.2634 32.73 54.7068 32.73C55.4398 32.73 56.1034 32.4395 56.1034 31.765C56.1034 31.2756 55.7661 31.1132 54.8933 30.8922L53.706 30.6004C52.8566 30.3904 52.2984 29.9602 52.2984 29.1232C52.2984 27.7845 53.4038 27.1795 54.6022 27.1795C56.7786 27.1795 56.93 28.786 56.93 29.0881H55.9416V29.0875V29.0875ZM59.1994 28.203V32.1594C59.1994 32.6364 59.6069 32.6364 59.8161 32.6364H60.1768V33.439C59.8037 33.4741 59.5133 33.5209 59.4087 33.5209C58.3961 33.5209 58.1752 32.9509 58.1752 32.2165V28.2023H57.3492V27.3529H58.1752V25.6535H59.1994V27.3529H60.1775V28.2023H59.1994V28.203V28.203ZM65.982 31.5317C65.9469 31.8221 65.6675 32.6839 64.9 33.196C64.6206 33.3818 64.2255 33.6138 63.2481 33.6138C61.5369 33.6138 60.5237 32.3218 60.5237 30.5646C60.5237 28.68 61.4316 27.1781 63.4456 27.1781C65.2029 27.1781 66.0646 28.5747 66.0646 30.727H61.6188C61.6188 31.9963 62.2115 32.7286 63.3864 32.7286C64.3528 32.7286 64.9227 31.9839 64.9578 31.531H65.982V31.5317V31.5317Z" fill="#1D293F"/>
<path fill-rule="evenodd" clip-rule="evenodd" d="M65.0051 29.9135C64.946 28.9712 64.5509 28.0984 63.3057 28.0984C62.3634 28.0984 61.6187 28.9712 61.6187 29.9135H65.0051V29.9135Z" fill="white"/>
<path fill-rule="evenodd" clip-rule="evenodd" d="M66.9224 27.3534H67.8874V28.2151H67.9101C68.1317 27.8882 68.6548 27.1785 69.7493 27.1785C70.8437 27.1785 71.1933 27.8427 71.3668 28.1683C71.8789 27.5984 72.2864 27.1785 73.2287 27.1785C73.8805 27.1785 75.1147 27.5158 75.1147 29.2276V33.4394H74.0904V29.5057C74.0904 28.668 73.8337 28.0981 72.9609 28.0981C72.1005 28.0981 71.5306 28.9131 71.5306 29.7273V33.4394H70.5064V29.2276C70.5064 28.7155 70.3089 28.0981 69.5517 28.0981C68.9694 28.0981 67.9452 28.4705 67.9452 30.1224V33.4387H66.9224V27.3534V27.3534ZM79.7071 29.0872C79.6947 28.7024 79.555 28.063 78.2644 28.063C77.9498 28.063 77.0529 28.1676 77.0529 28.9248C77.0529 29.4252 77.3675 29.5408 78.1591 29.7397L79.1819 29.9951C80.4511 30.3097 80.893 30.7749 80.893 31.6016C80.893 32.8585 79.8564 33.6142 78.4839 33.6142C76.0748 33.6142 75.9 32.2177 75.8649 31.4846H76.8547C76.8898 31.9616 77.0295 32.7298 78.4722 32.7298C79.206 32.7298 79.8688 32.4393 79.8688 31.7647C79.8688 31.2754 79.5316 31.1129 78.6588 30.892L77.4714 30.6001C76.6221 30.3902 76.0638 29.96 76.0638 29.123C76.0638 27.7842 77.1686 27.1792 78.3669 27.1792C80.5434 27.1792 80.6955 28.7857 80.6955 29.0879H79.7071V29.0872V29.0872ZM84.7662 25.084H88.1527C90.3291 25.084 91.6679 26.7359 91.6679 29.145C91.6679 31.0193 90.8529 33.4387 88.1065 33.4387H84.7655V25.084H84.7662V25.084Z" fill="#1D293F"/>
<path fill-rule="evenodd" clip-rule="evenodd" d="M85.896 32.474H88.0834C89.5502 32.474 90.5049 31.3218 90.5049 29.2156C90.5049 27.1093 89.5385 26.0493 88.0029 26.0493H85.896V32.474V32.474Z" fill="white"/>
<path fill-rule="evenodd" clip-rule="evenodd" d="M93.6678 33.4394H92.6436V27.3534H93.6678V33.4394ZM92.6436 26.2479V25.084H93.6678V26.2479H92.6436ZM98.6945 27.3534H99.8116L97.4955 33.4394H96.401L94.1785 27.3534H95.3658L96.9483 32.3113H96.9724L98.6945 27.3534V27.3534ZM101.347 33.4394H100.322V27.3534H101.347V33.4394ZM100.322 26.2479V25.084H101.347V26.2479H100.322ZM105.977 29.0872C105.966 28.7024 105.826 28.063 104.534 28.063C104.22 28.063 103.324 28.1676 103.324 28.9248C103.324 29.4252 103.637 29.5408 104.429 29.7397L105.453 29.9951C106.721 30.3097 107.163 30.7749 107.163 31.6016C107.163 32.8585 106.128 33.6142 104.754 33.6142C102.345 33.6142 102.171 32.2177 102.136 31.4846H103.124C103.16 31.9616 103.299 32.7298 104.743 32.7298C105.476 32.7298 106.139 32.4393 106.139 31.7647C106.139 31.2754 105.803 31.1129 104.929 30.892L103.741 30.6001C102.892 30.3902 102.334 29.96 102.334 29.123C102.334 27.7842 103.438 27.1792 104.638 27.1792C106.815 27.1792 106.965 28.7857 106.965 29.0879H105.977V29.0872V29.0872ZM109.026 33.4394H108.001V27.3534H109.026V33.4394ZM108.001 26.2479V25.084H109.026V26.2479H108.001ZM112.678 27.1785C114.622 27.1785 115.507 28.8201 115.507 30.3902C115.507 31.9616 114.622 33.6032 112.678 33.6032C110.734 33.6032 109.85 31.9616 109.85 30.3902C109.85 28.8201 110.734 27.1785 112.678 27.1785Z" fill="#1D293F"/>
<path fill-rule="evenodd" clip-rule="evenodd" d="M112.678 32.719C114.145 32.719 114.447 31.2054 114.447 30.3904C114.447 29.5755 114.145 28.0632 112.678 28.0632C111.211 28.0632 110.909 29.5755 110.909 30.3904C110.909 31.2054 111.211 32.719 112.678 32.719Z" fill="white"/>
<path fill-rule="evenodd" clip-rule="evenodd" d="M121.265 33.4394H120.24V29.6929C120.24 28.6336 119.938 28.0987 118.937 28.0987C118.355 28.0987 117.331 28.4711 117.331 30.1231V33.4394H116.307V27.3533H117.273V28.2151H117.296C117.517 27.8881 118.087 27.1785 119.135 27.1785C120.077 27.1785 121.265 27.5632 121.265 29.2971V33.4394V33.4394Z" fill="#1D293F"/>
</svg>
