<svg width="36" height="36" viewBox="0 0 36 36" fill="none" xmlns="http://www.w3.org/2000/svg">
<path opacity="0.5" fill-rule="evenodd" clip-rule="evenodd" d="M34.0707 21.945C32.1807 19.8898 28.9133 20.1747 27.3911 22.5061C25.8658 20.1708 22.5945 19.8922 20.7069 21.9496C19.1112 23.6894 19.2935 26.4238 20.9487 28.1064L26.8316 34.0856C27.1384 34.397 27.6408 34.397 27.9476 34.0856L33.832 28.1064C35.4904 26.4223 35.6704 23.6839 34.0707 21.945Z" fill="#258AFF"/>
<path fill-rule="evenodd" clip-rule="evenodd" d="M14.0867 21.3478H6.26064C5.82785 21.3478 5.47803 20.9972 5.47803 20.5652C5.47803 20.1332 5.82785 19.7826 6.26064 19.7826H14.0867C14.5195 19.7826 14.8693 20.1332 14.8693 20.5652C14.8693 20.9972 14.5195 21.3478 14.0867 21.3478Z" fill="#258AFF"/>
<path fill-rule="evenodd" clip-rule="evenodd" d="M3.13043 1H32.8696C34.596 1 36 2.404 36 4.13043V18.2174H34.4348V14.3043H1.56522V24.4783C1.56522 25.3415 2.26722 26.0435 3.13043 26.0435H15.6522V27.6087H3.13043C1.404 27.6087 0 26.2047 0 24.4783V4.13043C0 2.404 1.404 1 3.13043 1ZM1.56522 8.04348H34.4348V4.13043C34.4348 3.26722 33.7328 2.56522 32.8696 2.56522H3.13043C2.26722 2.56522 1.56522 3.26722 1.56522 4.13043V8.04348Z" fill="#258AFF"/>
</svg>
