<svg width="17" height="17" viewBox="0 0 17 17" fill="none" xmlns="http://www.w3.org/2000/svg">
<rect width="17" height="17" fill="white"/>
<path fill-rule="evenodd" clip-rule="evenodd" d="M16.3833 6.78789L11.0555 6.01382L8.67381 1.18611C8.60601 1.07081 8.48223 1 8.34847 1C8.2147 1 8.09093 1.07081 8.02313 1.18611L5.6403 6.01273L0.311069 6.78789C0.174365 6.80762 0.0607138 6.90324 0.0178921 7.03456C-0.0249296 7.16587 0.010503 7.31011 0.109295 7.40664L3.9655 11.1649L3.05534 16.4712C3.03212 16.6073 3.08806 16.7447 3.19969 16.8259C3.31132 16.907 3.45932 16.9178 3.58155 16.8537L8.3472 14.3486L13.1128 16.8526C13.2351 16.9167 13.3831 16.9059 13.4947 16.8248C13.6063 16.7436 13.6623 16.6062 13.6391 16.4701L12.7289 11.1649L16.5851 7.40664C16.6839 7.31016 16.7193 7.16599 16.6766 7.0347C16.6339 6.9034 16.5203 6.80773 16.3837 6.78789H16.3833Z" fill="#F5A623"/>
</svg>
